<?xml version="1.0" standalone="no"?>
<!DOCTYPE svg PUBLIC "-//W3C//DTD SVG 20010904//EN"
 "http://www.w3.org/TR/2001/REC-SVG-20010904/DTD/svg10.dtd">
<svg version="1.0" xmlns="http://www.w3.org/2000/svg"
 width="840.000000pt" height="840.000000pt" viewBox="0 0 840.000000 840.000000"
 preserveAspectRatio="xMidYMid meet">
<metadata>
Created by potrace 1.11, written by Peter Selinger 2001-2013
</metadata>
<g transform="translate(0.000000,840.000000) scale(0.100000,-0.100000)"
fill="#000000" stroke="none">
<path d="M4077 7594 c-1 -1 -49 -4 -107 -8 -58 -3 -123 -9 -145 -11 -22 -3
-58 -7 -80 -9 -22 -2 -68 -9 -102 -15 -35 -6 -73 -13 -85 -15 -83 -14 -117
-22 -238 -52 -226 -56 -477 -149 -635 -234 -88 -48 -229 -133 -235 -141 -3 -5
-24 -21 -46 -36 -219 -150 -419 -407 -495 -638 -31 -95 -37 -101 -91 -86 -190
53 -373 52 -536 -3 -37 -13 -82 -31 -100 -40 -17 -9 -35 -16 -38 -15 -4 0 -10
-3 -13 -8 -3 -4 -31 -25 -62 -46 -170 -114 -320 -342 -380 -577 -6 -25 -11
-45 -11 -45 1 0 -3 -18 -8 -40 -15 -67 -24 -165 -24 -270 0 -94 11 -242 19
-254 2 -4 6 -24 9 -46 24 -151 110 -371 218 -555 55 -95 207 -271 303 -351
120 -100 291 -191 425 -228 107 -29 152 -34 262 -34 l98 1 -44 -56 c-54 -72
-136 -197 -136 -210 0 -6 -3 -12 -7 -14 -15 -6 -84 -160 -118 -261 -47 -140
-74 -284 -79 -420 l-1 -47 40 -11 c22 -5 47 -12 55 -15 14 -5 106 -31 140 -39
8 -2 67 -18 130 -35 133 -35 466 -120 494 -126 24 -4 23 -3 28 -49 5 -44 25
-82 47 -90 21 -8 294 -7 317 1 10 4 25 15 31 25 12 16 17 15 80 -1 38 -10 88
-21 113 -25 25 -4 54 -9 65 -12 33 -7 277 -53 314 -59 18 -3 43 -8 55 -10 11
-2 39 -6 61 -9 22 -3 51 -7 65 -10 14 -3 45 -8 70 -11 25 -3 57 -7 71 -10 78
-12 117 -16 279 -30 109 -10 384 -10 480 -1 130 12 186 18 210 23 14 2 45 7
70 9 25 3 56 8 70 10 14 3 43 7 65 11 22 3 78 12 125 21 47 8 96 17 110 19 14
3 36 7 50 9 14 3 36 8 50 10 34 6 60 12 90 19 14 3 36 8 50 10 14 3 59 12 100
21 83 18 80 17 168 38 34 9 62 13 62 11 0 -3 8 0 18 5 9 5 49 16 87 24 39 8
158 38 265 66 107 28 203 53 213 56 58 14 316 88 478 137 l67 20 -4 57 c-22
334 -122 602 -326 875 -32 43 -58 80 -56 81 2 2 21 0 44 -4 78 -15 260 2 349
32 6 2 24 7 40 12 55 15 263 120 285 144 3 4 21 17 40 31 64 44 178 154 237
228 21 26 40 49 43 52 23 23 129 200 164 275 53 113 115 299 131 395 6 40 17
112 21 150 5 44 6 268 0 295 -2 11 -7 43 -10 70 -10 73 -52 223 -81 291 -132
307 -361 504 -649 559 -99 19 -247 17 -337 -4 -42 -10 -84 -15 -95 -11 -10 4
-45 10 -77 14 -42 6 -60 12 -63 24 -18 59 -145 291 -198 362 -258 343 -675
596 -1201 729 -66 16 -133 32 -150 35 -166 31 -291 48 -440 62 -65 6 -462 13
-468 8z"/>
<path d="M1599 2669 c-4 -55 8 -184 27 -276 119 -584 615 -1111 1316 -1398 35
-14 72 -30 83 -35 22 -9 172 -60 195 -66 8 -2 55 -14 103 -28 80 -23 261 -64
312 -71 11 -1 54 -7 95 -13 263 -38 595 -45 870 -18 74 7 156 18 170 21 8 2
38 7 65 11 28 3 53 8 56 10 3 2 21 6 40 9 277 47 670 191 924 338 100 58 302
195 340 230 7 7 53 48 102 92 95 86 188 187 252 275 22 30 44 60 49 65 36 44
172 301 172 325 0 6 4 18 9 28 41 74 88 296 95 450 3 54 1 63 -13 59 -9 -3
-74 -24 -146 -47 -71 -23 -137 -43 -145 -45 -8 -2 -37 -11 -65 -19 -59 -17
-425 -122 -475 -136 -35 -10 -116 -31 -135 -36 -5 -1 -73 -18 -150 -38 -128
-32 -319 -77 -387 -90 -42 -9 -74 -15 -178 -36 -52 -11 -123 -24 -157 -30 -35
-6 -75 -12 -90 -15 -68 -12 -235 -34 -303 -40 -41 -4 -86 -8 -100 -11 -31 -5
-375 -5 -415 1 -16 2 -59 7 -95 10 -36 3 -76 8 -90 9 -14 2 -47 7 -75 10 -27
4 -81 11 -120 17 -38 6 -81 12 -95 14 -24 3 -60 10 -105 19 -11 2 -40 7 -65
11 -25 4 -53 9 -62 11 -10 2 -26 6 -35 8 -10 2 -38 7 -63 12 -25 4 -47 8 -50
9 -25 5 -90 18 -108 21 -124 23 -884 206 -987 238 -5 1 -23 6 -40 10 -58 15
-290 78 -305 84 -8 3 -19 6 -25 7 -21 5 -170 47 -182 52 -7 3 -13 -1 -14 -8z"/>
</g>
</svg>
